<?xml version="1.0" encoding="utf-8"?>
<svg xmlns="http://www.w3.org/2000/svg"
	xmlns:xlink="http://www.w3.org/1999/xlink"
	width="32px" height="26px" viewBox="0 0 32 26">
<path fillRule="evenodd" d="M 28 26C 28 26 4 26 4 26 1.79 26 0 24.21 0 22 0 22 0 4 0 4 0 1.79 1.79 0 4 0 4 0 28 0 28 0 30.21 0 32 1.79 32 4 32 4 32 22 32 22 32 24.21 30.21 26 28 26ZM 30 4C 30 2.9 29.1 2 28 2 28 2 4 2 4 2 2.9 2 2 2.9 2 4 2 4 2 22 2 22 2 23.1 2.9 24 4 24 4 24 28 24 28 24 29.1 24 30 23.1 30 22 30 22 30 4 30 4ZM 26 13C 26 13 22 13 22 13 20.9 13 20 12.1 20 11 20 11 20 7 20 7 20 5.9 20.9 5 22 5 22 5 26 5 26 5 27.1 5 28 5.9 28 7 28 7 28 11 28 11 28 12.1 27.1 13 26 13ZM 26 8C 26 7.45 25.55 7 25 7 25 7 23 7 23 7 22.45 7 22 7.45 22 8 22 8 22 10 22 10 22 10.55 22.45 11 23 11 23 11 25 11 25 11 25.55 11 26 10.55 26 10 26 10 26 8 26 8ZM 17 21C 17 21 5 21 5 21 4.45 21 4 20.55 4 20 4 19.45 4.45 19 5 19 5 19 17 19 17 19 17.55 19 18 19.45 18 20 18 20.55 17.55 21 17 21ZM 17 17C 17 17 5 17 5 17 4.45 17 4 16.55 4 16 4 15.45 4.45 15 5 15 5 15 17 15 17 15 17.55 15 18 15.45 18 16 18 16.55 17.55 17 17 17Z" fill="rgb(107,111,112)"/></svg>