<?xml version="1.0" encoding="utf-8"?>
<svg xmlns="http://www.w3.org/2000/svg"
	xmlns:xlink="http://www.w3.org/1999/xlink"
	width="21px" height="21px" viewBox="0 0 21 21">
<path fillRule="evenodd" d="M 19.19 21C 19.19 21 1.61 21 1.61 21 0.72 21 0 20.35 0 19.45 0 19.45 0 1.62 0 1.62 0 0.72 0.72-0 1.61-0 1.61-0 19.19-0 19.19-0 20.08-0 20.8 0.72 20.8 1.62 20.8 1.62 20.8 19.45 20.8 19.45 20.8 20.35 20.08 21 19.19 21ZM 8.86 4.05C 7.91 4.05 6.99 4.2 6.37 4.51 5.75 4.82 5.31 5.36 5.07 5.84 4.84 6.33 4.73 6.92 4.73 7.91 4.73 7.91 4.73 8.85 4.73 8.85 4.73 8.85 3.17 8.85 3.17 8.85 3.17 8.85 3.17 11.31 3.17 11.31 3.17 11.31 4.73 11.31 4.73 11.31 4.73 11.31 4.73 19.48 4.73 19.48 4.73 19.48 8.05 19.48 8.05 19.48 8.05 19.48 8.05 11.31 8.05 11.31 8.05 11.31 10.13 11.31 10.13 11.31 10.13 11.31 10.7 8.85 10.7 8.85 10.7 8.85 8.05 8.85 8.05 8.85 8.05 8.85 8.05 7.97 8.05 7.97 8.05 7.37 8.16 6.97 8.37 6.76 8.59 6.55 9.02 6.42 9.51 6.42 10.01 6.42 10.42 6.66 10.92 6.96 10.92 6.96 11.53 4.64 11.53 4.64 10.6 4.38 9.84 4.05 8.86 4.05Z" fill="rgb(43,117,177)"/></svg>