<?xml version="1.0" encoding="utf-8"?>
<svg xmlns="http://www.w3.org/2000/svg"
	xmlns:xlink="http://www.w3.org/1999/xlink"
	width="22px" height="21px" viewBox="0 0 22 21">
<path fillRule="evenodd" d="M 18.55 21C 18.55 21 2.95 21 2.95 21 1.51 21 0.35 19.83 0.35 18.38 0.35 18.38 0.35 2.63 0.35 2.63 0.35 1.18 1.51 0 2.95 0 2.95 0 18.55 0 18.55 0 19.99 0 21.15 1.18 21.15 2.63 21.15 2.63 21.15 18.38 21.15 18.38 21.15 19.83 19.99 21 18.55 21ZM 10.75 6.43C 9.13 6.43 7.73 7.4 7.1 8.79 7.1 8.79 7.09 8.79 7.09 8.79 7.08 8.81 7.08 8.82 7.07 8.84 7.04 8.93 7 9.01 6.97 9.1 6.95 9.15 6.94 9.19 6.92 9.23 6.89 9.32 6.87 9.41 6.85 9.51 6.83 9.55 6.82 9.6 6.81 9.64 6.79 9.74 6.78 9.84 6.76 9.94 6.76 9.98 6.75 10.02 6.74 10.06 6.73 10.21 6.72 10.35 6.72 10.5 6.72 12.75 8.52 14.57 10.75 14.57 12.98 14.57 14.78 12.75 14.78 10.5 14.78 10.35 14.77 10.21 14.76 10.06 14.75 10.02 14.74 9.98 14.74 9.94 14.72 9.84 14.71 9.74 14.69 9.64 14.68 9.6 14.67 9.55 14.65 9.51 14.63 9.41 14.61 9.32 14.58 9.23 14.56 9.19 14.55 9.15 14.53 9.1 14.5 9.01 14.46 8.93 14.43 8.84 14.42 8.82 14.42 8.81 14.41 8.79 14.41 8.79 14.4 8.79 14.4 8.79 13.77 7.4 12.37 6.43 10.75 6.43ZM 18.81 3.41C 18.81 2.83 18.34 2.36 17.77 2.36 17.77 2.36 15.69 2.36 15.69 2.36 15.12 2.36 14.65 2.83 14.65 3.41 14.65 3.41 14.65 5.51 14.65 5.51 14.65 6.09 15.12 6.56 15.69 6.56 15.69 6.56 17.77 6.56 17.77 6.56 18.34 6.56 18.81 6.09 18.81 5.51 18.81 5.51 18.81 3.41 18.81 3.41ZM 18.81 8.79C 18.81 8.79 16.89 8.79 16.89 8.79 17.04 9.34 17.12 9.91 17.12 10.5 17.12 14.05 14.27 16.93 10.75 16.93 7.23 16.93 4.38 14.05 4.38 10.5 4.38 9.91 4.46 9.34 4.61 8.79 4.61 8.79 2.69 8.79 2.69 8.79 2.69 8.79 2.69 17.59 2.69 17.59 2.69 18.17 3.16 18.64 3.73 18.64 3.73 18.64 17.77 18.64 17.77 18.64 18.34 18.64 18.81 18.17 18.81 17.59 18.81 17.59 18.81 8.79 18.81 8.79Z" fill="rgb(38,100,141)"/></svg>