<?xml version="1.0" encoding="utf-8"?>
<svg xmlns="http://www.w3.org/2000/svg"
	xmlns:xlink="http://www.w3.org/1999/xlink"
	width="23px" height="23px" viewBox="0 0 23 23">
<path fillRule="evenodd" d="M 21.67 7.74C 21.67 7.74 18.47 10.95 18.47 10.95 17.28 12.14 15.59 12.53 14.08 12.11 14.08 12.11 16.75 9.44 16.75 9.44 16.79 9.41 16.83 9.38 16.87 9.34 16.87 9.34 20.07 6.14 20.07 6.14 20.96 5.25 20.96 3.82 20.07 2.93 19.19 2.05 17.76 2.05 16.87 2.93 16.87 2.93 13.67 6.14 13.67 6.14 13.67 6.14 13.67 6.14 13.67 6.14 13.67 6.14 13.67 6.14 13.67 6.14 13.67 6.14 10.9 8.9 10.9 8.9 10.5 7.39 10.89 5.72 12.07 4.53 12.07 4.53 15.27 1.33 15.27 1.33 17.04-0.44 19.91-0.44 21.67 1.33 23.44 3.1 23.44 5.97 21.67 7.74ZM 8.51 16.16C 8.51 16.16 8.5 16.16 8.5 16.16 8.29 16.37 8 16.5 7.68 16.5 7.05 16.5 6.53 15.98 6.53 15.35 6.53 15.02 6.68 14.72 6.9 14.51 6.9 14.51 14.51 6.91 14.51 6.91 14.72 6.68 15.02 6.54 15.35 6.54 15.99 6.54 16.5 7.05 16.5 7.69 16.5 8 16.38 8.29 16.17 8.49 16.17 8.49 16.18 8.5 16.18 8.5 16.18 8.5 8.51 16.16 8.51 16.16ZM 6.13 13.66C 6.13 13.66 2.93 16.86 2.93 16.86 2.05 17.75 2.05 19.19 2.93 20.07 3.81 20.96 5.25 20.96 6.13 20.07 6.13 20.07 9.33 16.86 9.33 16.86 9.36 16.84 9.37 16.82 9.39 16.79 9.39 16.79 12.1 14.09 12.1 14.09 12.51 15.6 12.12 17.28 10.94 18.47 10.94 18.47 7.73 21.68 7.73 21.68 5.96 23.45 3.1 23.45 1.33 21.68-0.44 19.9-0.44 17.03 1.33 15.26 1.33 15.26 4.53 12.05 4.53 12.05 5.72 10.87 7.4 10.48 8.91 10.89 8.91 10.89 6.16 13.64 6.16 13.64 6.15 13.65 6.14 13.65 6.13 13.66Z" fill="rgb(198,200,205)"/></svg>