<?xml version="1.0" encoding="utf-8"?>
<svg xmlns="http://www.w3.org/2000/svg"
	xmlns:xlink="http://www.w3.org/1999/xlink"
	width="24px" height="24px" viewBox="0 0 24 24">
<path fillRule="evenodd" d="M 22.43 13.57C 22.43 13.57 13.57 13.57 13.57 13.57 13.57 13.57 13.57 22.43 13.57 22.43 13.57 23.3 12.86 24 12 24 11.14 24 10.43 23.3 10.43 22.43 10.43 22.43 10.43 13.57 10.43 13.57 10.43 13.57 1.57 13.57 1.57 13.57 0.7 13.57 0 12.86 0 12 0 11.14 0.7 10.43 1.57 10.43 1.57 10.43 10.43 10.43 10.43 10.43 10.43 10.43 10.43 1.57 10.43 1.57 10.43 0.7 11.14 0 12 0 12.86 0 13.57 0.7 13.57 1.57 13.57 1.57 13.57 10.43 13.57 10.43 13.57 10.43 22.43 10.43 22.43 10.43 23.3 10.43 24 11.14 24 12 24 12.86 23.3 13.57 22.43 13.57Z" fill="rgb(198,200,205)"/></svg>