<?xml version="1.0" encoding="utf-8"?>
<svg xmlns="http://www.w3.org/2000/svg"
	xmlns:xlink="http://www.w3.org/1999/xlink"
	width="25px" height="21px" viewBox="0 0 25 21">
<path fillRule="evenodd" d="M 17 0.66C 18.96 0.62 20.01 1.35 21.01 2.27 21.85 2.2 22.95 1.72 23.6 1.38 23.81 1.27 24.02 1.15 24.23 1.03 23.86 2.05 23.36 2.84 22.59 3.45 22.42 3.58 22.25 3.76 22.03 3.85 22.03 3.85 22.03 3.86 22.03 3.86 23.13 3.85 24.04 3.35 24.9 3.07 24.9 3.08 24.9 3.08 24.9 3.08 24.45 3.81 23.84 4.55 23.18 5.09 22.92 5.3 22.65 5.51 22.39 5.72 22.4 6.91 22.37 8.03 22.16 9.03 20.89 14.8 17.54 18.72 12.23 20.4 10.32 21 7.24 21.25 5.06 20.7 3.98 20.42 3 20.12 2.08 19.71 1.57 19.48 1.1 19.24 0.65 18.96 0.5 18.87 0.35 18.78 0.2 18.68 0.69 18.7 1.27 18.84 1.82 18.75 2.32 18.66 2.81 18.69 3.27 18.58 4.41 18.33 5.43 17.99 6.31 17.47 6.73 17.22 7.38 16.92 7.68 16.56 7.11 16.57 6.59 16.43 6.17 16.28 4.53 15.69 3.58 14.61 2.96 12.99 3.45 13.05 4.88 13.18 5.22 12.89 4.59 12.86 3.99 12.49 3.56 12.22 2.24 11.38 1.17 9.97 1.18 7.81 1.35 7.9 1.52 7.98 1.7 8.06 2.03 8.2 2.36 8.28 2.76 8.36 2.93 8.4 3.26 8.5 3.45 8.43 3.44 8.43 3.43 8.43 3.43 8.43 3.17 8.12 2.76 7.92 2.5 7.6 1.65 6.53 0.86 4.89 1.36 2.93 1.49 2.44 1.69 2 1.91 1.6 1.91 1.6 1.92 1.6 1.93 1.61 2.03 1.82 2.25 1.97 2.39 2.15 2.82 2.69 3.35 3.18 3.9 3.61 5.75 5.08 7.41 5.98 10.09 6.65 10.77 6.82 11.55 6.95 12.36 6.95 12.14 6.28 12.21 5.19 12.39 4.54 12.84 2.9 13.82 1.72 15.26 1.08 15.6 0.93 15.98 0.82 16.38 0.73 16.59 0.71 16.79 0.68 17 0.66Z" fill="rgb(31,169,225)"/></svg>