<?xml version="1.0" encoding="utf-8"?>
<svg xmlns="http://www.w3.org/2000/svg"
	xmlns:xlink="http://www.w3.org/1999/xlink"
	width="23px" height="21px" viewBox="0 0 23 21">
<path fillRule="evenodd" d="M 18.01 21C 18.01 21 18.01 13.36 18.01 13.36 18.01 11.79 17.55 10.23 15.68 10.23 13.8 10.23 13.02 11.79 13.02 13.4 13.02 13.4 13.02 21 13.02 21 13.02 21 8.02 21 8.02 21 8.02 21 8.02 7.01 8.02 7.01 8.02 7.01 13.02 7.01 13.02 7.01 13.02 7.01 13.02 8.89 13.02 8.89 14.34 7.25 15.48 6.57 17.55 6.57 19.63 6.57 23 7.52 23 13.05 23 13.05 23 21 23 21 23 21 18.01 21 18.01 21ZM 3.4 4.94C 1.85 4.94 0.6 3.84 0.6 2.47 0.6 1.11 1.85 0 3.4 0 4.94 0 6.19 1.11 6.19 2.47 6.19 3.84 4.94 4.94 3.4 4.94ZM 5.89 21C 5.89 21 0.88 21 0.88 21 0.88 21 0.88 7.01 0.88 7.01 0.88 7.01 5.89 7.01 5.89 7.01 5.89 7.01 5.89 21 5.89 21Z" fill="rgb(204,204,204)"/></svg>