<?xml version="1.0" encoding="utf-8"?>
<svg xmlns="http://www.w3.org/2000/svg"
	xmlns:xlink="http://www.w3.org/1999/xlink"
	width="25px" height="25px" viewBox="0 0 25 25">
<path fillRule="evenodd" d="M 25 23.33C 25 24.25 24.25 25 23.33 25 22.85 25 22.43 24.79 22.12 24.46 22.12 24.46 22.11 24.47 22.11 24.47 22.11 24.47 18.73 21.09 18.73 21.09 19.49 20.13 19.96 18.94 19.99 17.63 19.99 17.63 24.47 22.11 24.47 22.11 24.47 22.11 24.46 22.12 24.46 22.12 24.79 22.43 25 22.85 25 23.33ZM 10.83 21.67C 4.85 21.67 0 16.82 0 10.83 0 4.85 4.85 0 10.83 0 16.82 0 21.67 4.85 21.67 10.83 21.67 16.82 16.82 21.67 10.83 21.67ZM 10.83 3.33C 6.69 3.33 3.33 6.69 3.33 10.83 3.33 14.98 6.69 18.33 10.83 18.33 14.98 18.33 18.33 14.98 18.33 10.83 18.33 6.69 14.98 3.33 10.83 3.33Z" fill="rgb(109,109,113)"/></svg>