<?xml version="1.0" encoding="utf-8"?>
<svg xmlns="http://www.w3.org/2000/svg"
	xmlns:xlink="http://www.w3.org/1999/xlink"
	width="24px" height="21px" viewBox="0 0 24 21">
<path fillRule="evenodd" d="M 20.34 5.11C 20.34 5.11 20.34 8.72 20.34 8.72 20.34 8.72 18.88 8.72 18.88 8.72 18.88 8.72 18.88 5.11 18.88 5.11 18.88 5.11 15.23 5.11 15.23 5.11 15.23 5.11 15.23 3.63 15.23 3.63 15.23 3.63 18.88 3.63 18.88 3.63 18.88 3.63 18.88 0.02 18.88 0.02 18.88 0.02 20.34 0.02 20.34 0.02 20.34 0.02 20.34 3.63 20.34 3.63 20.34 3.63 24 3.63 24 3.63 24 3.63 24 5.11 24 5.11 24 5.11 20.34 5.11 20.34 5.11ZM 10.23 1.45C 11.53 2.18 12.29 3.36 12.29 4.9 12.29 6.2 11.5 7.22 10.48 8.01 9.48 8.78 9.29 9.11 9.29 9.76 9.29 10.32 10.36 11.28 10.92 11.67 12.55 12.82 13.03 13.88 13.03 15.66 13.03 17.87 10.92 20.35 7.01 20.35 3.58 20.35 0.6 18.69 0.6 16.47 0.6 14.22 3.33 12.05 6.76 12.05 7.13 12.05 7.47 12.04 7.83 12.04 7.36 11.58 6.99 11.02 6.99 10.33 6.99 9.93 7.12 9.52 7.3 9.17 7.11 9.19 6.92 9.16 6.73 9.16 3.91 9.16 2.03 7.1 2.03 4.63 2.03 2.22 4.63-0 7.4-0 8.94-0 13.57-0 13.57-0 13.57-0 12.19 1.45 12.19 1.45 12.19 1.45 10.23 1.45 10.23 1.45ZM 7.41 12.63C 5.04 12.6 2.92 14.06 2.92 15.82 2.92 17.61 4.63 18.91 7 18.91 10.33 18.91 11.49 17.7 11.49 15.91 11.49 15.69 11.46 15.48 11.41 15.27 11.15 14.26 10.23 13.76 8.94 12.87 8.48 12.72 7.96 12.63 7.41 12.63ZM 10.07 4.93C 9.8 2.85 8.22 1.19 6.63 1.14 5.04 1.1 3.97 2.68 4.24 4.76 4.52 6.83 6.03 8.55 7.62 8.6 9.21 8.65 10.34 7 10.07 4.93Z" fill="rgb(220,64,112)"/></svg>