<?xml version="1.0" encoding="utf-8"?>
<svg xmlns="http://www.w3.org/2000/svg"
	xmlns:xlink="http://www.w3.org/1999/xlink"
	width="30px" height="25px" viewBox="0 0 30 25">
<path fillRule="evenodd" d="M 26.33 24.27C 26.33 24.27 4.31 24.27 4.31 24.27 2.28 24.27 0.64 22.64 0.64 20.63 0.64 20.63 0.64 4.26 0.64 4.26 0.64 2.25 2.28 0.62 4.31 0.62 4.31 0.62 26.33 0.62 26.33 0.62 28.36 0.62 30 2.25 30 4.26 30 4.26 30 20.63 30 20.63 30 22.64 28.36 24.27 26.33 24.27ZM 5.23 2.44C 5.23 2.44 15.32 11.14 15.32 11.14 15.32 11.14 25.41 2.44 25.41 2.44 25.41 2.44 5.23 2.44 5.23 2.44ZM 28.17 4.26C 28.17 3.74 27.94 3.27 27.58 2.94 27.58 2.94 15.32 13.36 15.32 13.36 15.32 13.36 3.06 2.94 3.06 2.94 2.7 3.27 2.48 3.74 2.48 4.26 2.48 4.26 2.48 20.63 2.48 20.63 2.48 21.64 3.3 22.45 4.31 22.45 4.31 22.45 26.33 22.45 26.33 22.45 27.34 22.45 28.17 21.64 28.17 20.63 28.17 20.63 28.17 4.26 28.17 4.26Z" fill="rgb(109,109,113)"/></svg>