<?xml version="1.0" encoding="utf-8"?>
<svg xmlns="http://www.w3.org/2000/svg"
	xmlns:xlink="http://www.w3.org/1999/xlink"
	width="25px" height="34px" viewBox="0 0 25 34">
<path fillRule="evenodd" d="M 12.46 33.99C 10.39 34.01-0.02 18.08-0.02 12.75-0.02 5.71 5.57 0 12.46 0 19.35 0 24.94 5.71 24.94 12.75 24.94 18.01 14.5 34.01 12.46 33.99ZM 12.46 2.13C 6.72 2.13 2.06 6.88 2.06 12.75 2.06 17.19 10.73 30.82 12.46 30.81 14.16 30.82 22.86 17.13 22.86 12.75 22.86 6.88 18.2 2.13 12.46 2.13ZM 12.46 18.06C 9.59 18.06 7.26 15.68 7.26 12.75 7.26 9.81 9.59 7.44 12.46 7.44 15.33 7.44 17.66 9.81 17.66 12.75 17.66 15.68 15.33 18.06 12.46 18.06ZM 12.46 9.56C 10.74 9.56 9.34 10.99 9.34 12.75 9.34 14.51 10.74 15.94 12.46 15.94 14.18 15.94 15.58 14.51 15.58 12.75 15.58 10.99 14.18 9.56 12.46 9.56Z" fill="rgb(31,169,225)"/></svg>