<?xml version="1.0" encoding="utf-8"?>
<svg xmlns="http://www.w3.org/2000/svg"
	xmlns:xlink="http://www.w3.org/1999/xlink"
	width="40px" height="40px" viewBox="0 0 40 40">
<path fillRule="evenodd" d="M 4.8 1.09C 4.8 1.09 1.17 4.76 1.17 4.76-0.84 6.79 0.13 9.21 1.17 12.1 1.17 12.1 6.16 20.7 12.61 27.23 19.47 34.17 27.48 38.71 27.48 38.71 30.12 40.09 32.73 40.74 34.74 38.71 34.74 38.71 38.36 35.04 38.36 35.04 39.37 34.03 39.58 32.22 38.36 31.37 38.36 31.37 31.11 25.87 31.11 25.87 29.88 25.03 28.48 24.85 27.48 25.87 27.48 25.87 27.48 25.87 27.48 25.87 27.48 25.87 27.48 25.87 27.48 25.87 27.48 25.87 25.33 28.04 25.33 28.04 22.81 26.14 20.01 23.82 17.5 21.28 15.27 19.03 13.3 16.59 11.65 14.35 11.65 14.35 13.87 12.1 13.87 12.1 14.87 11.09 14.7 9.68 13.87 8.43 13.87 8.43 8.43 1.09 8.43 1.09 7.42 0.08 5.8 0.08 4.8 1.09M 8.32 14.05C 8.32 14.05 11.23 11.1 11.23 11.1 11.87 10.46 11.76 9.56 11.23 8.77 11.23 8.77 7.77 4.09 7.77 4.09 7.13 3.23 6.09 3.45 5.46 4.09 5.46 4.09 3.15 6.43 3.15 6.43 2.24 7.29 2.5 9.3 2.98 10.27 5.13 14.4 9.89 20.76 13.87 24.95 18.46 29.99 29.29 36.88 29.29 36.88 30.13 37.32 32.45 37.36 33.09 36.71 33.09 36.71 35.39 34.38 35.39 34.38 35.87 33.57 36.09 32.63 35.39 32.04 35.39 32.04 30.78 28.54 30.78 28.54 29.99 28 29.11 27.89 28.47 28.54 28.47 28.54 25.62 31.41 25.62 31.41 24.95 30.94 14.26 23.83 8.32 14.05Z" fill="rgb(109,109,113)"/></svg>