<?xml version="1.0"?>
<!--Icons from directory ""-->
<svg xmlns="http://www.w3.org/2000/svg" width="32" height="296" viewBox="0 0 32 296">
    <svg xmlns:xlink="http://www.w3.org/1999/xlink" viewBox="0 0 21 21" width="21" height="21" id="icon-fa" y="0">
        <path fill="#2b75b1" fillRule="evenodd" d="m19.19 21h-17.58c-0.89 0-1.61-0.65-1.61-1.55v-17.83c0-0.9 0.72-1.62 1.61-1.62h17.58c0.89 0 1.61 0.72 1.61 1.62v17.83c0 0.9-0.72 1.55-1.61 1.55zm-10.33-16.95c-0.95 0-1.87 0.15-2.49 0.46s-1.06 0.85-1.3 1.33c-0.23 0.49-0.34 1.08-0.34 2.07v0.94h-1.56v2.46h1.56v8.17h3.32v-8.17h2.08l0.57-2.46h-2.65v-0.88c0-0.6 0.11-1 0.32-1.21 0.22-0.21 0.65-0.34 1.14-0.34 0.5 0 0.91 0.24 1.41 0.54l0.61-2.32c-0.93-0.26-1.69-0.59-2.67-0.59z"/>
    </svg>
    <svg xmlns:xlink="http://www.w3.org/1999/xlink" viewBox="0 0 24 21" width="24" height="21" id="icon-g" y="21">
        <path fill="#dc4070" fillRule="evenodd" d="m20.34 5.11v3.61h-1.46v-3.61h-3.65v-1.48h3.65v-3.61h1.46v3.61h3.66v1.48h-3.66zm-10.11-3.66c1.3 0.73 2.06 1.91 2.06 3.45 0 1.3-0.79 2.32-1.81 3.11-1 0.77-1.19 1.1-1.19 1.75 0 0.56 1.07 1.52 1.63 1.91 1.63 1.15 2.11 2.21 2.11 3.99 0 2.21-2.11 4.69-6.02 4.69-3.43 0-6.41-1.66-6.41-3.88 0-2.25 2.73-4.42 6.16-4.42 0.37 0 0.71-0.01 1.07-0.01-0.47-0.46-0.84-1.02-0.84-1.71 0-0.4 0.13-0.81 0.31-1.16-0.19 0.02-0.38-0.01-0.57-0.01-2.82 0-4.7-2.06-4.7-4.53 0-2.41 2.6-4.63 5.37-4.63h6.17l-1.38 1.45h-1.96zm-2.82 11.18c-2.37-0.03-4.49 1.43-4.49 3.19 0 1.79 1.71 3.09 4.08 3.09 3.33 0 4.49-1.21 4.49-3 0-0.22-0.03-0.43-0.08-0.64-0.26-1.01-1.18-1.51-2.47-2.4-0.46-0.15-0.98-0.24-1.53-0.24zm2.66-7.7c-0.27-2.08-1.85-3.74-3.44-3.79-1.59-0.04-2.66 1.54-2.39 3.62 0.28 2.07 1.79 3.79 3.38 3.84s2.72-1.6 2.45-3.67z"/>
    </svg>
    <svg xmlns:xlink="http://www.w3.org/1999/xlink" viewBox="0 0 22 21" width="22" height="21" id="icon-int" y="42">
        <path fill="#26648d" fillRule="evenodd"
              d="m18.55 21h-15.6c-1.44 0-2.6-1.17-2.6-2.62v-15.75c0-1.45 1.16-2.63 2.6-2.63h15.6c1.44 0 2.6 1.18 2.6 2.63v15.75c0 1.45-1.16 2.62-2.6 2.62zm-7.8-14.57c-1.62 0-3.02 0.97-3.65 2.36h-0.01c-0.01 0.02-0.01 0.03-0.02 0.05-0.03 0.09-0.07 0.17-0.1 0.26-0.02 0.05-0.03 0.09-0.05 0.13-0.03 0.09-0.05 0.18-0.07 0.28-0.02 0.04-0.03 0.09-0.04 0.13-0.02 0.1-0.03 0.2-0.05 0.3 0 0.04-0.01 0.08-0.02 0.12-0.01 0.15-0.02 0.29-0.02 0.44 0 2.25 1.8 4.07 4.03 4.07s4.03-1.82 4.03-4.07c0-0.15-0.01-0.29-0.02-0.44-0.01-0.04-0.02-0.08-0.02-0.12-0.02-0.1-0.03-0.2-0.05-0.3-0.01-0.04-0.02-0.09-0.04-0.13-0.02-0.1-0.04-0.19-0.07-0.28-0.02-0.04-0.03-0.08-0.05-0.13-0.03-0.09-0.07-0.17-0.1-0.26-0.01-0.02-0.01-0.03-0.02-0.05h-0.01c-0.63-1.39-2.03-2.36-3.65-2.36zm8.06-3.02c0-0.58-0.47-1.05-1.04-1.05h-2.08c-0.57 0-1.04 0.47-1.04 1.05v2.1c0 0.58 0.47 1.05 1.04 1.05h2.08c0.57 0 1.04-0.47 1.04-1.05v-2.1zm0 5.38h-1.92c0.15 0.55 0.23 1.12 0.23 1.71 0 3.55-2.85 6.43-6.37 6.43s-6.37-2.88-6.37-6.43c0-0.59 0.08-1.16 0.23-1.71h-1.92v8.8c0 0.58 0.47 1.05 1.04 1.05h14.04c0.57 0 1.04-0.47 1.04-1.05v-8.8z"/>
    </svg>
    <svg xmlns:xlink="http://www.w3.org/1999/xlink" viewBox="0 0 32 26" width="32" height="26" id="icon-letter" y="63">
        <path fill="#6b6f70" fillRule="evenodd" d="m28 26h-24c-2.21 0-4-1.79-4-4v-18c0-2.21 1.79-4 4-4h24c2.21 0 4 1.79 4 4v18c0 2.21-1.79 4-4 4zm2-22c0-1.1-0.9-2-2-2h-24c-1.1 0-2 0.9-2 2v18c0 1.1 0.9 2 2 2h24c1.1 0 2-0.9 2-2v-18zm-4 9h-4c-1.1 0-2-0.9-2-2v-4c0-1.1 0.9-2 2-2h4c1.1 0 2 0.9 2 2v4c0 1.1-0.9 2-2 2zm0-5c0-0.55-0.45-1-1-1h-2c-0.55 0-1 0.45-1 1v2c0 0.55 0.45 1 1 1h2c0.55 0 1-0.45 1-1v-2zm-9 13h-12c-0.55 0-1-0.45-1-1s0.45-1 1-1h12c0.55 0 1 0.45 1 1s-0.45 1-1 1zm0-4h-12c-0.55 0-1-0.45-1-1s0.45-1 1-1h12c0.55 0 1 0.45 1 1s-0.45 1-1 1z"/>
    </svg>
    <svg xmlns:xlink="http://www.w3.org/1999/xlink" viewBox="0 0 23 23" width="23" height="23" id="icon-link" y="89">
        <path fill="#c6c8cd" fillRule="evenodd" d="m21.67 7.74s-3.2 3.21-3.2 3.21c-1.19 1.19-2.88 1.58-4.39 1.16l2.67-2.67c0.04-0.03 0.08-0.06 0.12-0.1l3.2-3.2c0.89-0.89 0.89-2.32 0-3.21-0.88-0.88-2.31-0.88-3.2 0 0 0-3.2 3.21-3.2 3.21l-2.77 2.76c-0.4-1.51-0.01-3.18 1.17-4.37l3.2-3.2c1.77-1.77 4.64-1.77 6.4 0 1.77 1.77 1.77 4.64 0 6.41zm-13.16 8.42h-0.01c-0.21 0.21-0.5 0.34-0.82 0.34-0.63 0-1.15-0.52-1.15-1.15 0-0.33 0.15-0.63 0.37-0.84l7.61-7.6c0.21-0.23 0.51-0.37 0.84-0.37 0.64 0 1.15 0.51 1.15 1.15 0 0.31-0.12 0.6-0.33 0.8l0.01 0.01-7.67 7.66zm-2.38-2.5l-3.2 3.2c-0.88 0.89-0.88 2.33 0 3.21 0.88 0.89 2.32 0.89 3.2 0 0 0 3.2-3.21 3.2-3.21 0.03-0.02 0.04-0.04 0.06-0.07l2.71-2.7c0.41 1.51 0.02 3.19-1.16 4.38l-3.21 3.21c-1.77 1.77-4.63 1.77-6.4 0-1.77-1.78-1.77-4.65 0-6.42 0 0 3.2-3.21 3.2-3.21 1.19-1.18 2.87-1.57 4.38-1.16l-2.75 2.75c-0.01 0.01-0.02 0.01-0.03 0.02z"/>
    </svg>
    <svg xmlns:xlink="http://www.w3.org/1999/xlink" viewBox="0 0 23 21" width="23" height="21" id="icon-linkedin" y="112">
        <path fill="#ccc" fillRule="evenodd" d="m18.01 21v-7.64c0-1.57-0.46-3.13-2.33-3.13-1.88 0-2.66 1.56-2.66 3.17v7.6h-5v-13.99h5v1.88c1.32-1.64 2.46-2.32 4.53-2.32 2.08 0 5.45 0.95 5.45 6.48v7.95h-4.99zm-14.61-16.06c-1.55 0-2.8-1.1-2.8-2.47 0-1.36 1.25-2.47 2.8-2.47 1.54 0 2.79 1.11 2.79 2.47 0 1.37-1.25 2.47-2.79 2.47zm2.49 16.06h-5.01v-13.99h5.01v13.99z"/>
    </svg>
    <svg xmlns:xlink="http://www.w3.org/1999/xlink" viewBox="0 0 30 25" width="30" height="25" id="icon-mail" y="133">
        <path fill="#6d6d71" fillRule="evenodd" d="m26.33 24.27h-22.02c-2.03 0-3.67-1.63-3.67-3.64v-16.37c0-2.01 1.64-3.64 3.67-3.64h22.02c2.03 0 3.67 1.63 3.67 3.64v16.37c0 2.01-1.64 3.64-3.67 3.64zm-21.1-21.83l10.09 8.7 10.09-8.7h-20.18zm22.94 1.82c0-0.52-0.23-0.99-0.59-1.32l-12.26 10.42-12.26-10.42c-0.36 0.33-0.58 0.8-0.58 1.32v16.37c0 1.01 0.82 1.82 1.83 1.82h22.02c1.01 0 1.84-0.81 1.84-1.82v-16.37z"/>
    </svg>
    <svg xmlns:xlink="http://www.w3.org/1999/xlink" viewBox="0 0 25 34" width="25" height="34" id="icon-marker" y="158">
        <path fill="#1fa9e1" fillRule="evenodd" d="m12.46 33.99c-2.07 0.02-12.48-15.91-12.48-21.24 0-7.04 5.59-12.75 12.48-12.75s12.48 5.71 12.48 12.75c0 5.26-10.44 21.26-12.48 21.24zm0-31.86c-5.74 0-10.4 4.75-10.4 10.62 0 4.44 8.67 18.07 10.4 18.06 1.7 0.01 10.4-13.68 10.4-18.06 0-5.87-4.66-10.62-10.4-10.62zm0 15.93c-2.87 0-5.2-2.38-5.2-5.31 0-2.94 2.33-5.31 5.2-5.31s5.2 2.37 5.2 5.31c0 2.93-2.33 5.31-5.2 5.31zm0-8.5c-1.72 0-3.12 1.43-3.12 3.19s1.4 3.19 3.12 3.19 3.12-1.43 3.12-3.19-1.4-3.19-3.12-3.19z"/>
    </svg>
    <svg xmlns:xlink="http://www.w3.org/1999/xlink" viewBox="0 0 24 24" width="24" height="24" id="icon-plus" y="192">
        <path fill="#c6c8cd" fillRule="evenodd" d="m22.43 13.57h-8.86v8.86c0 0.87-0.71 1.57-1.57 1.57s-1.57-0.7-1.57-1.57v-8.86h-8.86c-0.87 0-1.57-0.71-1.57-1.57s0.7-1.57 1.57-1.57h8.86v-8.86c0-0.87 0.71-1.57 1.57-1.57s1.57 0.7 1.57 1.57v8.86h8.86c0.87 0 1.57 0.71 1.57 1.57s-0.7 1.57-1.57 1.57z"/>
    </svg>
    <svg xmlns:xlink="http://www.w3.org/1999/xlink" viewBox="0 0 25 25" width="25" height="25" id="icon-search" y="216">
        <path fill="#6d6d71" fillRule="evenodd" d="m25 23.33c0 0.92-0.75 1.67-1.67 1.67-0.48 0-0.9-0.21-1.21-0.54l-0.01 0.01-3.38-3.38c0.76-0.96 1.23-2.15 1.26-3.46l4.48 4.48-0.01 0.01c0.33 0.31 0.54 0.73 0.54 1.21zm-14.17-1.66c-5.98 0-10.83-4.85-10.83-10.84 0-5.98 4.85-10.83 10.83-10.83 5.99 0 10.84 4.85 10.84 10.83 0 5.99-4.85 10.84-10.84 10.84zm0-18.34c-4.14 0-7.5 3.36-7.5 7.5 0 4.15 3.36 7.5 7.5 7.5 4.15 0 7.5-3.35 7.5-7.5 0-4.14-3.35-7.5-7.5-7.5z"/>
    </svg>
    <svg xmlns:xlink="http://www.w3.org/1999/xlink" viewBox="0 0 25 21" width="25" height="21" id="icon-tw" y="241">
        <path fill="#1fa9e1" fillRule="evenodd"
              d="m17 0.66c1.96-0.04 3.01 0.69 4.01 1.61 0.84-0.07 1.94-0.55 2.59-0.89 0.21-0.11 0.42-0.23 0.63-0.35-0.37 1.02-0.87 1.81-1.64 2.42-0.17 0.13-0.34 0.31-0.56 0.4v0.01c1.1-0.01 2.01-0.51 2.87-0.79v0.01c-0.45 0.73-1.06 1.47-1.72 2.01-0.26 0.21-0.53 0.42-0.79 0.63 0.01 1.19-0.02 2.31-0.23 3.31-1.27 5.77-4.62 9.69-9.93 11.37-1.91 0.6-4.99 0.85-7.17 0.3-1.08-0.28-2.06-0.58-2.98-0.99-0.51-0.23-0.98-0.47-1.43-0.75-0.15-0.09-0.3-0.18-0.45-0.28 0.49 0.02 1.07 0.16 1.62 0.07 0.5-0.09 0.99-0.06 1.45-0.17 1.14-0.25 2.16-0.59 3.04-1.11 0.42-0.25 1.07-0.55 1.37-0.91-0.57 0.01-1.09-0.13-1.51-0.28-1.64-0.59-2.59-1.67-3.21-3.29 0.49 0.06 1.92 0.19 2.26-0.1-0.63-0.03-1.23-0.4-1.66-0.67-1.32-0.84-2.39-2.25-2.38-4.41 0.17 0.09 0.34 0.17 0.52 0.25 0.33 0.14 0.66 0.22 1.06 0.3 0.17 0.04 0.5 0.14 0.69 0.07h-0.02c-0.26-0.31-0.67-0.51-0.93-0.83-0.85-1.07-1.64-2.71-1.14-4.67 0.13-0.49 0.33-0.93 0.55-1.33 0 0 0.01 0 0.02 0.01 0.1 0.21 0.32 0.36 0.46 0.54 0.43 0.54 0.96 1.03 1.51 1.46 1.85 1.47 3.51 2.37 6.19 3.04 0.68 0.17 1.46 0.3 2.27 0.3-0.22-0.67-0.15-1.76 0.03-2.41 0.45-1.64 1.43-2.82 2.87-3.46 0.34-0.15 0.72-0.26 1.12-0.35 0.21-0.02 0.41-0.05 0.62-0.07z"/>
    </svg>
    <svg xmlns:xlink="http://www.w3.org/1999/xlink" viewBox="0 0 25 34" width="25" height="34" id="icon" y="262">
        <path fill="#1fa9e1" fillRule="evenodd" d="m12.46 33.99c-2.07 0.02-12.48-15.91-12.48-21.24 0-7.04 5.59-12.75 12.48-12.75s12.48 5.71 12.48 12.75c0 5.26-10.44 21.26-12.48 21.24zm0-31.86c-5.74 0-10.4 4.75-10.4 10.62 0 4.44 8.67 18.07 10.4 18.06 1.7 0.01 10.4-13.68 10.4-18.06 0-5.87-4.66-10.62-10.4-10.62zm0 15.93c-2.87 0-5.2-2.38-5.2-5.31 0-2.94 2.33-5.31 5.2-5.31s5.2 2.37 5.2 5.31c0 2.93-2.33 5.31-5.2 5.31zm0-8.5c-1.72 0-3.12 1.43-3.12 3.19s1.4 3.19 3.12 3.19 3.12-1.43 3.12-3.19-1.4-3.19-3.12-3.19z"/>
    </svg>
</svg>
